<svg xmlns="http://www.w3.org/2000/svg" version="1.1" xmlns:xlink="http://www.w3.org/1999/xlink" width="200" height="200"><svg xmlns="http://www.w3.org/2000/svg" version="1.1" xmlns:xlink="http://www.w3.org/1999/xlink" viewBox="0 0 200 200"><rect width="200" height="200" fill="url('#gradient')"></rect><defs><linearGradient id="SvgjsLinearGradient1001" gradientTransform="rotate(252 0.5 0.5)"><stop offset="0%" stop-color="#430101"></stop><stop offset="100%" stop-color="#000000"></stop></linearGradient></defs><g><g fill="#ff0b0b" transform="matrix(3.558156547183614,0,0,3.558156547183614,3.7510821359734763,126.35037511129316)" stroke="#000000" stroke-width="0.35"><path d="M6.74-4.46L6.74-14.22L10.16-14.22L10.16-4.46Q10.16-3.11 9.53-2.04Q8.90-0.98 7.77-0.39Q6.64 0.20 5.25 0.20L5.25 0.20Q2.93 0.20 1.64-0.98Q0.35-2.15 0.35-4.30L0.35-4.30L3.79-4.30Q3.79-3.32 4.13-2.88Q4.46-2.44 5.25-2.44L5.25-2.44Q5.97-2.44 6.35-2.97Q6.74-3.51 6.74-4.46L6.74-4.46ZM11.76-4.82L11.75-5.38Q11.75-6.96 12.36-8.20Q12.98-9.43 14.13-10.10Q15.28-10.76 16.84-10.76L16.84-10.76Q19.21-10.76 20.58-9.29Q21.94-7.82 21.94-5.29L21.94-5.29L21.94-5.18Q21.94-2.71 20.57-1.25Q19.20 0.20 16.86 0.20L16.86 0.20Q14.60 0.20 13.23-1.16Q11.87-2.51 11.76-4.82L11.76-4.82ZM15.05-5.77L15.04-5.18Q15.04-3.71 15.50-3.03Q15.96-2.34 16.86-2.34L16.86-2.34Q18.61-2.34 18.65-5.05L18.65-5.05L18.65-5.38Q18.65-8.22 16.84-8.22L16.84-8.22Q15.19-8.22 15.05-5.77L15.05-5.77ZM29.94 0L27.64-3.94L26.71-3.01L26.71 0L23.42 0L23.42-15.01L26.71-15.01L26.71-7.04L27.04-7.48L29.52-10.57L33.47-10.57L29.77-6.22L33.71 0L29.94 0ZM39.25 0.20L39.25 0.20Q36.82 0.20 35.31-1.25Q33.81-2.71 33.81-5.03L33.81-5.03L33.81-5.30Q33.81-6.92 34.41-8.16Q35.01-9.40 36.16-10.08Q37.31-10.76 38.90-10.76L38.90-10.76Q41.12-10.76 42.41-9.38Q43.70-8.00 43.70-5.53L43.70-5.53L43.70-4.25L37.16-4.25Q37.33-3.36 37.93-2.85Q38.53-2.34 39.47-2.34L39.47-2.34Q41.04-2.34 41.91-3.44L41.91-3.44L43.42-1.66Q42.80-0.81 41.67-0.31Q40.55 0.20 39.25 0.20ZM38.88-8.22L38.88-8.22Q37.43-8.22 37.16-6.31L37.16-6.31L40.48-6.31L40.48-6.56Q40.50-7.35 40.08-7.79Q39.66-8.22 38.88-8.22ZM50.56-2.97L50.56-2.97Q50.56-3.39 50.12-3.64Q49.68-3.90 48.45-4.17Q47.22-4.44 46.42-4.89Q45.62-5.33 45.20-5.97Q44.78-6.60 44.78-7.42L44.78-7.42Q44.78-8.88 45.98-9.82Q47.18-10.76 49.12-10.76L49.12-10.76Q51.21-10.76 52.48-9.81Q53.75-8.87 53.75-7.32L53.75-7.32L50.45-7.32Q50.45-8.59 49.11-8.59L49.11-8.59Q48.59-8.59 48.24-8.31Q47.89-8.02 47.89-7.59L47.89-7.59Q47.89-7.15 48.32-6.88Q48.75-6.60 49.69-6.43Q50.63-6.25 51.35-6.01L51.35-6.01Q53.73-5.19 53.73-3.07L53.73-3.07Q53.73-1.62 52.45-0.71Q51.16 0.20 49.12 0.20L49.12 0.20Q47.76 0.20 46.70-0.29Q45.63-0.78 45.04-1.62Q44.44-2.46 44.44-3.39L44.44-3.39L47.52-3.39Q47.54-2.66 48.01-2.32Q48.48-1.98 49.21-1.98L49.21-1.98Q49.88-1.98 50.22-2.26Q50.56-2.53 50.56-2.97Z"></path></g></g></svg><style>@media (prefers-color-scheme: light) { :root { filter: none; } }
@media (prefers-color-scheme: dark) { :root { filter: none; } }
</style></svg>